<?xml version="1.0" standalone="no"?><!DOCTYPE svg PUBLIC "-//W3C//DTD SVG 1.1//EN"
  "http://www.w3.org/Graphics/SVG/1.1/DTD/svg11.dtd">
<svg t="0" class="icon" viewBox="0 0 1024 1024" version="1.1" xmlns="http://www.w3.org/2000/svg"
  xmlns:xlink="http://www.w3.org/1999/xlink" width="1024" height="1024">
  <defs>
    <filter id="icon_shadow" x="-20%" y="-20%" width="140%" height="140%">
      <feGaussianBlur in="SourceAlpha" stdDeviation="20"/>
      <feOffset dx="0" dy="15" result="offsetblur"/>
      <feComponentTransfer>
        <feFuncA type="linear" slope="0.3"/>
      </feComponentTransfer>
      <feMerge>
        <feMergeNode/>
        <feMergeNode in="SourceGraphic"/>
      </feMerge>
    </filter>
  </defs>
  <g transform="translate(102.4000 102.4000) scale(0.8)" filter="url(#icon_shadow)">
    <!-- path start -->
    <g transform="translate(0.000000,1024.000000) scale(0.100000,-0.100000)"
fill="#1A29D7" stroke="none">
<path d="M1221 9759 c-355 -46 -658 -323 -759 -694 -36 -132 -44 -5730 -9
-5895 77 -357 328 -624 677 -721 98 -28 7687 -45 7860 -19 429 66 744 401 790
840 13 130 13 5520 0 5650 -46 435 -357 773 -770 835 -108 17 -7664 20 -7789
4z m1886 -2154 c215 -41 396 -202 484 -431 44 -114 60 -1926 19 -2087 -151
-600 -936 -702 -1219 -158 -81 155 -76 87 -76 1166 0 1081 -5 1010 78 1170
137 264 415 397 714 340z m4278 0 c231 -48 434 -245 502 -485 34 -122 27
-1969 -8 -2072 -223 -651 -1117 -622 -1273 42 -23 97 -23 1912 -1 2010 83 356
427 579 780 505z"/>
<path d="M3253 1825 c-642 -173 -676 -1120 -49 -1333 129 -43 3686 -43 3811 1
629 221 593 1164 -51 1332 -84 22 -3629 22 -3711 0z"/>
</g>
    <!-- path end -->
  </g>
</svg>
